# Blender 5.0.0
# www.blender.org
mtllib Mob.mtl
o Plane
v -0.218368 0.000000 5.319100
v -0.300962 -0.000000 7.317394
v 0.000000 0.000000 7.325990
v -0.000000 -0.000000 5.325990
v -2.169292 0.152834 6.983326
v -4.122214 0.302078 5.995556
v -5.670215 0.444223 4.467691
v -6.668086 0.575931 2.557202
v -7.030016 0.694106 0.457955
v -6.737236 0.795973 -1.621306
v -5.841077 0.879137 -3.479858
v -4.452935 0.941645 -4.952364
v -2.722025 0.982028 -5.916467
v -0.824812 0.999336 -6.307149
v 1.056953 0.993164 -6.116721
v 2.754537 0.963656 -5.392549
v 4.130460 0.911506 -4.230540
v 5.080952 0.837939 -2.750732
v 5.549383 0.744683 -1.096151
v 5.519279 0.633930 0.587519
v 5.014749 0.508282 2.162941
v 4.097517 0.370691 3.510541
v 2.846645 0.224390 4.528227
v 1.369430 0.072817 5.147408
v 1.882909 -0.072818 7.074875
v 3.884178 -0.224391 6.178113
v 5.508062 -0.370691 4.719143
v 6.596122 -0.508282 2.845477
v 7.057309 -0.633930 0.751820
v 6.858828 -0.744683 -1.355271
v 6.040746 -0.837939 -3.270569
v 4.705101 -0.911506 -4.819111
v 2.997674 -0.963656 -5.868314
v 1.096772 -0.993164 -6.346756
v -0.815343 -0.999336 -6.234901
v -2.564193 -0.982028 -5.573572
v -4.002797 -0.941645 -4.451770
v -5.022308 -0.879137 -2.991915
v -5.560249 -0.795973 -1.337739
v -5.593345 -0.694106 0.363926
v -5.141616 -0.575931 1.971452
v -4.262848 -0.444223 3.358647
v -3.041888 -0.302077 4.424604
v -1.582533 -0.152834 5.095924
vn -0.0117 -0.9970 0.0766
vn 0.0040 0.9993 0.0366
vn 0.0602 0.9886 0.1382
vn 0.1968 0.9535 0.2284
vn 0.3776 0.8956 0.2351
vn 0.5582 0.8166 0.1469
vn 0.6948 0.7186 -0.0309
vn 0.7498 0.6040 -0.2702
vn 0.7020 0.4757 -0.5300
vn 0.5487 0.3368 -0.7652
vn 0.3112 0.1904 -0.9311
vn 0.0207 0.0398 -0.9990
vn -0.2755 -0.1117 -0.9548
vn -0.5307 -0.2607 -0.8065
vn -0.7070 -0.4039 -0.5805
vn -0.7803 -0.5382 -0.3186
vn -0.7482 -0.6603 -0.0645
vn -0.6263 -0.7674 0.1375
vn -0.4484 -0.8567 0.2552
vn -0.2584 -0.9258 0.2758
vn -0.1008 -0.9730 0.2074
vt 0.000000 0.952381
vt 1.000000 0.952381
vt 1.000000 1.000000
vt 0.000000 1.000000
vt 0.000000 0.000000
vt 1.000000 0.000000
vt 1.000000 0.047619
vt 0.000000 0.047619
vt 1.000000 0.095238
vt 0.000000 0.095238
vt 1.000000 0.142857
vt 0.000000 0.142857
vt 1.000000 0.190476
vt 0.000000 0.190476
vt 1.000000 0.238095
vt 0.000000 0.238095
vt 1.000000 0.285714
vt 0.000000 0.285714
vt 1.000000 0.333333
vt 0.000000 0.333333
vt 1.000000 0.380952
vt 0.000000 0.380952
vt 1.000000 0.428571
vt 0.000000 0.428571
vt 1.000000 0.476190
vt 0.000000 0.476190
vt 1.000000 0.523810
vt 0.000000 0.523810
vt 1.000000 0.571429
vt 0.000000 0.571429
vt 1.000000 0.619048
vt 0.000000 0.619048
vt 1.000000 0.666667
vt 0.000000 0.666667
vt 1.000000 0.714286
vt 0.000000 0.714286
vt 1.000000 0.761905
vt 0.000000 0.761905
vt 1.000000 0.809524
vt 0.000000 0.809524
vt 1.000000 0.857143
vt 0.000000 0.857143
vt 1.000000 0.904762
vt 0.000000 0.904762
s 0
f 5/1/1 44/2/1 4/3/1 3/4/1
f 1/5/2 2/6/2 25/7/2 24/8/2
f 24/8/3 25/7/3 26/9/3 23/10/3
f 23/10/4 26/9/4 27/11/4 22/12/4
f 22/12/5 27/11/5 28/13/5 21/14/5
f 21/14/6 28/13/6 29/15/6 20/16/6
f 20/16/7 29/15/7 30/17/7 19/18/7
f 19/18/8 30/17/8 31/19/8 18/20/8
f 18/20/9 31/19/9 32/21/9 17/22/9
f 17/22/10 32/21/10 33/23/10 16/24/10
f 16/24/11 33/23/11 34/25/11 15/26/11
f 15/26/12 34/25/12 35/27/12 14/28/12
f 14/28/13 35/27/13 36/29/13 13/30/13
f 13/30/14 36/29/14 37/31/14 12/32/14
f 12/32/15 37/31/15 38/33/15 11/34/15
f 11/34/16 38/33/16 39/35/16 10/36/16
f 10/36/17 39/35/17 40/37/17 9/38/17
f 9/38/18 40/37/18 41/39/18 8/40/18
f 8/40/19 41/39/19 42/41/19 7/42/19
f 7/42/20 42/41/20 43/43/20 6/44/20
f 6/44/21 43/43/21 44/2/21 5/1/21
